<?xml version="1.0" encoding="UTF-8"?><!DOCTYPE svg PUBLIC "-//W3C//DTD SVG 1.1//EN" "http://www.w3.org/Graphics/SVG/1.1/DTD/svg11.dtd"><svg xmlns="http://www.w3.org/2000/svg" xmlns:xlink="http://www.w3.org/1999/xlink"><defs/><symbol id="icon-Foryou"><path d="M11.95 14C9.746 13.972 7.98 11.98 8 9.548v-2.37C8.117 4.813 9.902 2.97 12.048 3c2.146.03 3.889 1.92 3.952 4.288v2.37c-.038 2.43-1.847 4.37-4.05 4.342zm.108-9.471a2.343 2.343 0 0 0-1.753.765 2.858 2.858 0 0 0-.748 1.91l-.023 2.403C9.607 11.05 10.69 12.18 12 12.18c1.31 0 2.393-1.13 2.466-2.573v-2.37c0-1.476-1.07-2.68-2.408-2.708zM20.186 21l-16.421-.206a1.775 1.775 0 0 1-1.376-.688 1.873 1.873 0 0 1-.337-1.582l.4-1.582a3.857 3.857 0 0 1 2.273-2.65l2.753-1.139a.808.808 0 0 1 .902-.03.787.787 0 0 1-.286 1.446l-2.76 1.14a2.26 2.26 0 0 0-1.329 1.581l-.4 1.582a.298.298 0 0 0 .056.261c.025.043.07.07.12.071l16.43.206a.169.169 0 0 0 .127-.071.33.33 0 0 0 .056-.261l-.36-1.582a2.22 2.22 0 0 0-1.28-1.582l-2.793-1.218a.795.795 0 0 1-.428-.437.783.783 0 0 1 .455-1.025.809.809 0 0 1 .613.014l2.793 1.21a3.846 3.846 0 0 1 2.2 2.706l.36 1.582a1.85 1.85 0 0 1-.375 1.582 1.8 1.8 0 0 1-1.393.672z" fill="#333" fill-rule="nonzero"/></symbol><symbol id="icon-ForyouActive"><path d="M11.997 14a3.938 3.938 0 0 1-2.807-1.128A3.978 3.978 0 0 1 8 10.08V7.927C8.03 5.736 9.816 3.98 11.997 4a4 4 0 0 1 2.825 1.15A3.853 3.853 0 0 1 16 7.92v2.153a3.984 3.984 0 0 1-1.192 2.797A3.945 3.945 0 0 1 11.997 14zm9.958 3.946c.119.5-.001 1.025-.328 1.43A1.721 1.721 0 0 1 20.29 20H3.716a1.702 1.702 0 0 1-1.329-.589 1.643 1.643 0 0 1-.336-1.465l.386-1.574c.266-1.136 1.088-2.079 2.208-2.532l2.95-.815a.885.885 0 0 1 .815.295 4.874 4.874 0 0 0 3.73 1.368c2.357 0 3.221-.944 3.621-1.368a.825.825 0 0 1 .829-.302l2.722.822c1.147.447 1.992 1.407 2.257 2.566l.386 1.54z" fill="#333" fill-rule="nonzero"/></symbol><symbol id="icon-Menu"><path d="M2.931 11.594A1.814 1.814 0 0 1 2 10c0-.666.358-1.278.931-1.593L10 4.519a4.111 4.111 0 0 1 4 0l7.069 3.889c.573.315.931.927.931 1.593 0 .666-.358 1.278-.931 1.593L14 15.489a4.17 4.17 0 0 1-4 0L2.93 11.594zm.667-1.986h-.033a.445.445 0 0 0-.231.393c0 .164.089.315.23.392l7.056 3.895c.86.478 1.9.478 2.76 0l7.088-3.895a.445.445 0 0 0 .232-.392.445.445 0 0 0-.232-.393L13.414 5.72c-.86-.48-1.9-.48-2.76 0L3.597 9.608zm17.483 3.49l-.013.008c.574.327.932.964.932 1.656 0 .693-.358 1.33-.932 1.657l-7.06 4.043a3.991 3.991 0 0 1-4.003 0l-7.073-4.065C2.358 16.07 2 15.433 2 14.741c0-.693.358-1.329.932-1.656a.647.647 0 0 1 .9.283c.102.17.13.377.08.57a.7.7 0 0 1-.346.445.444.444 0 0 0-.234.404c.008.16.098.301.234.369l7.06 4.05c.86.497 1.9.497 2.762 0l7.06-4.015a.436.436 0 0 0 .233-.404.445.445 0 0 0-.234-.44.702.702 0 0 1-.322-.423.75.75 0 0 1 .055-.541.647.647 0 0 1 .901-.284z" fill="#333" fill-rule="nonzero"/></symbol><symbol id="icon-MenuActive"><path d="M2.931 11.298A1.734 1.734 0 0 1 2 9.768c0-.641.358-1.23.931-1.532L9.997 4.5a4.255 4.255 0 0 1 4 0l7.072 3.737c.573.303.931.891.931 1.531 0 .64-.358 1.228-.931 1.53l-1.44.768-6.246 3.278c-.86.46-1.899.46-2.76 0l-6.252-3.278-1.44-.767zm18.569 2.44l.053.047a1.823 1.823 0 0 1-.487 2.789L14 20.487a4.152 4.152 0 0 1-4 0l-7.067-3.913A1.823 1.823 0 0 1 2 14.978a1.78 1.78 0 0 1 .493-1.24.549.549 0 0 1 .727-.069L10 17.362a4.107 4.107 0 0 0 4 0l6.667-3.624.106-.062a.542.542 0 0 1 .727.062z" fill="#333" fill-rule="nonzero"/></symbol><symbol id="icon-Message"><path d="M18.936 5.587A2.542 2.542 0 0 0 16.593 4H7.407a2.542 2.542 0 0 0-2.343 1.587l-3.007 7.229A.798.798 0 0 0 2 13.11v4.533C2.004 19.498 3.467 21 5.271 21H18.73c.868 0 1.702-.356 2.315-.988.614-.633.958-1.49.956-2.384v-4.533a.798.798 0 0 0-.057-.28l-3.007-7.228zm-12.557.617c.162-.44.57-.732 1.028-.735h9.186c.457.003.866.295 1.028.735l2.579 6.193h-4.714a.712.712 0 0 0-.643.404l-.964 1.976H10.12l-.978-2.013a.712.712 0 0 0-.643-.404H3.8l2.579-6.156zm12.35 13.312H5.27c-1.015 0-1.838-.844-1.842-1.888V13.83h4.65l.964 1.976a.712.712 0 0 0 .636.404h4.642a.712.712 0 0 0 .636-.404l.964-1.976h4.65v3.798c-.004 1.044-.827 1.888-1.842 1.888z" fill="#333" fill-rule="nonzero"/></symbol><symbol id="icon-MessageActive"><path d="M16.617 14.003h4.81a.578.578 0 0 1 .428.184c.11.118.16.276.14.434v2.374C21.993 18.655 20.603 20 18.89 20H6.111c-1.713 0-3.103-1.344-3.107-3.005V14.62a.541.541 0 0 1 .14-.434.578.578 0 0 1 .43-.184H8.43a.53.53 0 0 1 .502.302l.76 1.473a.68.68 0 0 0 .604.362h4.408a.68.68 0 0 0 .604-.362l.767-1.473a.539.539 0 0 1 .542-.302zm-5.513.996a.635.635 0 0 1-.596-.34l-.789-1.43a.698.698 0 0 0-.623-.36h-5.8a.296.296 0 0 1-.243-.118.263.263 0 0 1-.034-.257l2.769-6.078c.385-.854 1.269-1.41 2.25-1.416h8.9c.988-.002 1.882.556 2.27 1.416 0 0 2.665 5.901 2.77 6.078a.257.257 0 0 1-.03.26.29.29 0 0 1-.248.114h-5.814a.698.698 0 0 0-.623.36s-.643 1.234-.754 1.43a.613.613 0 0 1-.588.341h-2.817z" fill="#333" fill-rule="nonzero"/></symbol><symbol id="icon-bubble" viewBox="0 0 32 32">
<title>bubble</title>
<path d="M16 2c8.837 0 16 5.82 16 13s-7.163 13-16 13c-0.849 0-1.682-0.054-2.495-0.158-3.437 3.437-7.539 4.053-11.505 4.144v-0.841c2.142-1.049 4-2.961 4-5.145 0-0.305-0.024-0.604-0.068-0.897-3.619-2.383-5.932-6.024-5.932-10.103 0-7.18 7.163-13 16-13z"/>
</symbol><symbol id="icon-cross" viewBox="0 0 32 32">
<title>cross</title>
<path d="M31.708 25.708c-0-0-0-0-0-0l-9.708-9.708 9.708-9.708c0-0 0-0 0-0 0.105-0.105 0.18-0.227 0.229-0.357 0.133-0.356 0.057-0.771-0.229-1.057l-4.586-4.586c-0.286-0.286-0.702-0.361-1.057-0.229-0.13 0.048-0.252 0.124-0.357 0.228 0 0-0 0-0 0l-9.708 9.708-9.708-9.708c-0-0-0-0-0-0-0.105-0.104-0.227-0.18-0.357-0.228-0.356-0.133-0.771-0.057-1.057 0.229l-4.586 4.586c-0.286 0.286-0.361 0.702-0.229 1.057 0.049 0.13 0.124 0.252 0.229 0.357 0 0 0 0 0 0l9.708 9.708-9.708 9.708c-0 0-0 0-0 0-0.104 0.105-0.18 0.227-0.229 0.357-0.133 0.355-0.057 0.771 0.229 1.057l4.586 4.586c0.286 0.286 0.702 0.361 1.057 0.229 0.13-0.049 0.252-0.124 0.357-0.229 0-0 0-0 0-0l9.708-9.708 9.708 9.708c0 0 0 0 0 0 0.105 0.105 0.227 0.18 0.357 0.229 0.356 0.133 0.771 0.057 1.057-0.229l4.586-4.586c0.286-0.286 0.362-0.702 0.229-1.057-0.049-0.13-0.124-0.252-0.229-0.357z"/>
</symbol><symbol id="icon-enlarge2" viewBox="0 0 32 32">
<title>enlarge2</title>
<path d="M32 0v13l-5-5-6 6-3-3 6-6-5-5zM14 21l-6 6 5 5h-13v-13l5 5 6-6z"/>
</symbol><symbol id="icon-github" viewBox="0 0 32 32">
<title>github</title>
<path d="M16 0.395c-8.836 0-16 7.163-16 16 0 7.069 4.585 13.067 10.942 15.182 0.8 0.148 1.094-0.347 1.094-0.77 0-0.381-0.015-1.642-0.022-2.979-4.452 0.968-5.391-1.888-5.391-1.888-0.728-1.849-1.776-2.341-1.776-2.341-1.452-0.993 0.11-0.973 0.11-0.973 1.606 0.113 2.452 1.649 2.452 1.649 1.427 2.446 3.743 1.739 4.656 1.33 0.143-1.034 0.558-1.74 1.016-2.14-3.554-0.404-7.29-1.777-7.29-7.907 0-1.747 0.625-3.174 1.649-4.295-0.166-0.403-0.714-2.030 0.155-4.234 0 0 1.344-0.43 4.401 1.64 1.276-0.355 2.645-0.532 4.005-0.539 1.359 0.006 2.729 0.184 4.008 0.539 3.054-2.070 4.395-1.64 4.395-1.64 0.871 2.204 0.323 3.831 0.157 4.234 1.026 1.12 1.647 2.548 1.647 4.295 0 6.145-3.743 7.498-7.306 7.895 0.574 0.497 1.085 1.47 1.085 2.963 0 2.141-0.019 3.864-0.019 4.391 0 0.426 0.288 0.925 1.099 0.768 6.354-2.118 10.933-8.113 10.933-15.18 0-8.837-7.164-16-16-16z"/>
</symbol><symbol id="icon-insert-template" viewBox="0 0 32 32">
<title>insert-template</title>
<path d="M12 6h4v2h-4zM18 6h4v2h-4zM28 6v8h-6v-2h4v-4h-2v-2zM10 12h4v2h-4zM16 12h4v2h-4zM6 8v4h2v2h-4v-8h6v2zM12 18h4v2h-4zM18 18h4v2h-4zM28 18v8h-6v-2h4v-4h-2v-2zM10 24h4v2h-4zM16 24h4v2h-4zM6 20v4h2v2h-4v-8h6v2zM30 2h-28v28h28v-28zM32 0v0 32h-32v-32h32z"/>
</symbol><symbol id="icon-point-down" viewBox="0 0 32 32">
<title>point-down</title>
<path d="M30 13v5c0 1.654-1.346 3-3 3-0.535 0-1.037-0.14-1.472-0.387-0.534 0.833-1.468 1.387-2.528 1.387-0.768 0-1.469-0.29-2-0.766-0.531 0.476-1.232 0.766-2 0.766-0.35 0-0.687-0.060-1-0.171v7.171c0 1.654-1.346 3-3 3s-3-1.346-3-3v-12.334l-5.501 2.932c-0.454 0.262-0.973 0.401-1.499 0.401-1.654 0-3-1.346-3-3 0-0.824 0.327-1.592 0.921-2.163 0.008-0.007 0.015-0.015 0.023-0.022l7.474-6.815h-1.419c-0.552 0-1-0.448-1-1v-6c0-0.552 0.448-1 1-1h20c0.552 0 1 0.448 1 1v6c0 0.552-0.448 1-1 1h-1.382l2.276 4.553c0.070 0.139 0.106 0.292 0.106 0.447zM28 5c0-0.552-0.448-1-1-1s-1 0.448-1 1 0.448 1 1 1 1-0.448 1-1zM28 13.236l-2.618-5.236h-11.995l-9.088 8.287c-0.193 0.19-0.299 0.443-0.299 0.713 0 0.551 0.449 1 1 1 0.171 0 0.332-0.041 0.479-0.122 0.017-0.010 0.033-0.020 0.051-0.029l7-3.732c0.31-0.165 0.684-0.156 0.985 0.025s0.485 0.506 0.485 0.857v14c0 0.551 0.449 1 1 1s1-0.449 1-1v-10c0-0.552 0.448-1 1-1s1 0.448 1 1c0 0.551 0.449 1 1 1s1-0.449 1-1c0-0.552 0.448-1 1-1s1 0.448 1 1c0 0.551 0.449 1 1 1s1-0.449 1-1v-1c0-0.552 0.448-1 1-1s1 0.448 1 1c0 0.551 0.449 1 1 1s1-0.449 1-1v-4.764z"/>
</symbol><symbol id="icon-sleepy" viewBox="0 0 32 32">
<title>sleepy</title>
<path d="M16 32c8.837 0 16-7.163 16-16s-7.163-16-16-16-16 7.163-16 16 7.163 16 16 16zM16 3c7.18 0 13 5.82 13 13s-5.82 13-13 13-13-5.82-13-13 5.82-13 13-13z"/>
<path d="M20 21c0 2.761-1.791 5-4 5s-4-2.239-4-5c0-2.761 1.791-5 4-5s4 2.239 4 5z"/>
<path d="M13 10.625c-0.256 0-0.512-0.098-0.707-0.293-0.604-0.604-1.982-0.604-2.586 0-0.39 0.391-1.024 0.391-1.414 0s-0.391-1.024 0-1.414c1.392-1.392 4.023-1.392 5.414 0 0.391 0.39 0.391 1.024 0 1.414-0.195 0.195-0.451 0.293-0.707 0.293z"/>
<path d="M23 10.625c-0.256 0-0.512-0.098-0.707-0.293-0.604-0.604-1.982-0.604-2.586 0-0.39 0.391-1.024 0.391-1.414 0s-0.391-1.024 0-1.414c1.392-1.392 4.023-1.392 5.414 0 0.391 0.39 0.391 1.024 0 1.414-0.195 0.195-0.451 0.293-0.707 0.293z"/>
</symbol></svg>