<svg viewBox="0 0 24 24" xmlns="http://www.w3.org/2000/svg"><path d="M11.997 14a3.938 3.938 0 0 1-2.807-1.128A3.978 3.978 0 0 1 8 10.08V7.927C8.03 5.736 9.816 3.98 11.997 4a4 4 0 0 1 2.825 1.15A3.853 3.853 0 0 1 16 7.92v2.153a3.984 3.984 0 0 1-1.192 2.797A3.945 3.945 0 0 1 11.997 14zm9.958 3.946c.119.5-.001 1.025-.328 1.43A1.721 1.721 0 0 1 20.29 20H3.716a1.702 1.702 0 0 1-1.329-.589 1.643 1.643 0 0 1-.336-1.465l.386-1.574c.266-1.136 1.088-2.079 2.208-2.532l2.95-.815a.885.885 0 0 1 .815.295 4.874 4.874 0 0 0 3.73 1.368c2.357 0 3.221-.944 3.621-1.368a.825.825 0 0 1 .829-.302l2.722.822c1.147.447 1.992 1.407 2.257 2.566l.386 1.54z" stroke="none" fill-rule="nonzero"/></svg>