<svg width="24" height="24" xmlns="http://www.w3.org/2000/svg"><path d="M11.95 14C9.746 13.972 7.98 11.98 8 9.548v-2.37C8.117 4.813 9.902 2.97 12.048 3c2.146.03 3.889 1.92 3.952 4.288v2.37c-.038 2.43-1.847 4.37-4.05 4.342zm.108-9.471a2.343 2.343 0 0 0-1.753.765 2.858 2.858 0 0 0-.748 1.91l-.023 2.403C9.607 11.05 10.69 12.18 12 12.18c1.31 0 2.393-1.13 2.466-2.573v-2.37c0-1.476-1.07-2.68-2.408-2.708zM20.186 21l-16.421-.206a1.775 1.775 0 0 1-1.376-.688 1.873 1.873 0 0 1-.337-1.582l.4-1.582a3.857 3.857 0 0 1 2.273-2.65l2.753-1.139a.808.808 0 0 1 .902-.03.787.787 0 0 1-.286 1.446l-2.76 1.14a2.26 2.26 0 0 0-1.329 1.581l-.4 1.582a.298.298 0 0 0 .056.261c.025.043.07.07.12.071l16.43.206a.169.169 0 0 0 .127-.071.33.33 0 0 0 .056-.261l-.36-1.582a2.22 2.22 0 0 0-1.28-1.582l-2.793-1.218a.795.795 0 0 1-.428-.437.783.783 0 0 1 .455-1.025.809.809 0 0 1 .613.014l2.793 1.21a3.846 3.846 0 0 1 2.2 2.706l.36 1.582a1.85 1.85 0 0 1-.375 1.582 1.8 1.8 0 0 1-1.393.672z" fill="#333" fill-rule="nonzero"/></svg>