<svg width="24" height="24" xmlns="http://www.w3.org/2000/svg"><path d="M2.931 11.298A1.734 1.734 0 0 1 2 9.768c0-.641.358-1.23.931-1.532L9.997 4.5a4.255 4.255 0 0 1 4 0l7.072 3.737c.573.303.931.891.931 1.531 0 .64-.358 1.228-.931 1.53l-1.44.768-6.246 3.278c-.86.46-1.899.46-2.76 0l-6.252-3.278-1.44-.767zm18.569 2.44l.053.047a1.823 1.823 0 0 1-.487 2.789L14 20.487a4.152 4.152 0 0 1-4 0l-7.067-3.913A1.823 1.823 0 0 1 2 14.978a1.78 1.78 0 0 1 .493-1.24.549.549 0 0 1 .727-.069L10 17.362a4.107 4.107 0 0 0 4 0l6.667-3.624.106-.062a.542.542 0 0 1 .727.062z" fill="#333" fill-rule="nonzero"/></svg>