<svg viewBox="0 0 24 24" xmlns="http://www.w3.org/2000/svg"><path d="M2.931 11.594A1.814 1.814 0 0 1 2 10c0-.666.358-1.278.931-1.593L10 4.519a4.111 4.111 0 0 1 4 0l7.069 3.889c.573.315.931.927.931 1.593 0 .666-.358 1.278-.931 1.593L14 15.489a4.17 4.17 0 0 1-4 0L2.93 11.594zm.667-1.986h-.033a.445.445 0 0 0-.231.393c0 .164.089.315.23.392l7.056 3.895c.86.478 1.9.478 2.76 0l7.088-3.895a.445.445 0 0 0 .232-.392.445.445 0 0 0-.232-.393L13.414 5.72c-.86-.48-1.9-.48-2.76 0L3.597 9.608zm17.483 3.49l-.013.008c.574.327.932.964.932 1.656 0 .693-.358 1.33-.932 1.657l-7.06 4.043a3.991 3.991 0 0 1-4.003 0l-7.073-4.065C2.358 16.07 2 15.433 2 14.741c0-.693.358-1.329.932-1.656a.647.647 0 0 1 .9.283c.102.17.13.377.08.57a.7.7 0 0 1-.346.445.444.444 0 0 0-.234.404c.008.16.098.301.234.369l7.06 4.05c.86.497 1.9.497 2.762 0l7.06-4.015a.436.436 0 0 0 .233-.404.445.445 0 0 0-.234-.44.702.702 0 0 1-.322-.423.75.75 0 0 1 .055-.541.647.647 0 0 1 .901-.284z" stroke="none" fill-rule="nonzero"/></svg>