<svg viewBox="0 0 24 24" xmlns="http://www.w3.org/2000/svg"><path d="M18.936 5.587A2.542 2.542 0 0 0 16.593 4H7.407a2.542 2.542 0 0 0-2.343 1.587l-3.007 7.229A.798.798 0 0 0 2 13.11v4.533C2.004 19.498 3.467 21 5.271 21H18.73c.868 0 1.702-.356 2.315-.988.614-.633.958-1.49.956-2.384v-4.533a.798.798 0 0 0-.057-.28l-3.007-7.228zm-12.557.617c.162-.44.57-.732 1.028-.735h9.186c.457.003.866.295 1.028.735l2.579 6.193h-4.714a.712.712 0 0 0-.643.404l-.964 1.976H10.12l-.978-2.013a.712.712 0 0 0-.643-.404H3.8l2.579-6.156zm12.35 13.312H5.27c-1.015 0-1.838-.844-1.842-1.888V13.83h4.65l.964 1.976a.712.712 0 0 0 .636.404h4.642a.712.712 0 0 0 .636-.404l.964-1.976h4.65v3.798c-.004 1.044-.827 1.888-1.842 1.888z" stroke="none" fill-rule="nonzero"/></svg>