<svg width="24" height="24" xmlns="http://www.w3.org/2000/svg"><path d="M16.617 14.003h4.81a.578.578 0 0 1 .428.184c.11.118.16.276.14.434v2.374C21.993 18.655 20.603 20 18.89 20H6.111c-1.713 0-3.103-1.344-3.107-3.005V14.62a.541.541 0 0 1 .14-.434.578.578 0 0 1 .43-.184H8.43a.53.53 0 0 1 .502.302l.76 1.473a.68.68 0 0 0 .604.362h4.408a.68.68 0 0 0 .604-.362l.767-1.473a.539.539 0 0 1 .542-.302zm-5.513.996a.635.635 0 0 1-.596-.34l-.789-1.43a.698.698 0 0 0-.623-.36h-5.8a.296.296 0 0 1-.243-.118.263.263 0 0 1-.034-.257l2.769-6.078c.385-.854 1.269-1.41 2.25-1.416h8.9c.988-.002 1.882.556 2.27 1.416 0 0 2.665 5.901 2.77 6.078a.257.257 0 0 1-.03.26.29.29 0 0 1-.248.114h-5.814a.698.698 0 0 0-.623.36s-.643 1.234-.754 1.43a.613.613 0 0 1-.588.341h-2.817z" fill="#333" fill-rule="nonzero"/></svg>